<?xml version="1.0" encoding="UTF-8" standalone="no"?><!DOCTYPE svg PUBLIC "-//W3C//DTD SVG 1.1//EN" "http://www.w3.org/Graphics/SVG/1.1/DTD/svg11.dtd"><svg width="100%" height="100%" viewBox="0 0 800 600" version="1.1" xmlns="http://www.w3.org/2000/svg" xmlns:xlink="http://www.w3.org/1999/xlink" xml:space="preserve" xmlns:serif="http://www.serif.com/" style="fill-rule:evenodd;clip-rule:evenodd;stroke-linecap:round;stroke-linejoin:round;stroke-miterlimit:1.5;"><rect x="0" y="0" width="800.731" height="230.851" style="fill:#f2f0a1;stroke:#fff;stroke-width:3px;"/><path d="M1.462,280.449c1.938,-41.098 -45.854,-2.883 -2.609,-52.04c23.621,-26.85 100.392,-39.502 154.988,-37.525c54.731,1.981 152.986,-51.601 187.814,-57.563c71.92,-12.311 103.971,3.966 155.426,-4.446c76.321,-12.477 302.766,-92.011 302.503,-70.417c-0.321,26.386 1.878,188.458 1.878,188.458c0,0 -828.742,55.558 -800,33.533Z" style="fill:#ffcd8a;stroke:#fff;stroke-width:3px;"/><path d="M-0.416,383.32c28.742,-22.026 -12.204,-104.952 15.206,-122.317c48.685,-30.843 195.118,-50.048 276.905,-62.742c70.893,-11.004 142.616,-19.67 213.817,-13.422c84.648,7.428 294.335,36.394 294.072,57.989c-0.321,26.386 0,106.959 0,106.959c0,0 -828.742,55.558 -800,33.533Z" style="fill:#fcaebb;stroke:#fff;stroke-width:3px;"/><path d="M-0.416,382.681c28.742,-16.083 86.226,-48.251 132.732,-64.1c66.641,-22.711 177.764,-61.34 267.111,-72.165c89.038,-10.787 202.279,-12.973 268.972,7.216c55.43,16.78 109.321,94.932 131.185,113.918c0,0 -828.742,31.215 -800,15.131Z" style="fill:#ff9da7;stroke:#fff;stroke-width:3px;"/><ellipse cx="399.219" cy="190.884" rx="130.155" ry="114.758" style="stroke:#fff;stroke-width:8px;"/><path d="M-0.731,242.465l140.779,0l0,89.69l44.33,35.567l103.093,-0.515l65.464,-91.753l62.886,-84.57l113.918,12.731l35.567,67.2l77.319,-43.299l72.681,-23.901l28.35,75.963l55.928,0l0,142.268l-800,12.887l-0.315,-192.268Z" style="fill:#74d1ea;stroke:#fff;stroke-width:3px;"/><path d="M800,425.213l0,-48.453c0,0 -188.875,-108.599 -260.567,-111.34c-64.73,-2.476 -122.466,74.531 -169.588,94.892c-35.612,15.387 -74.368,28.476 -113.144,27.273c-39.003,-1.211 -81.486,-33.591 -120.876,-34.536c-39.39,-0.945 -92.827,24.398 -115.464,28.865c-6.693,1.321 -20.361,-2.061 -20.361,-2.061l0,79.992l800,-34.632Z" style="fill:#a4eddd;stroke:#a4eddd;stroke-width:1px;"/><path d="M800.731,525.065l0,-162.144c0,0 -49.852,-11.143 -109.02,-10.309c-60.954,0.859 -184.751,40.017 -256.701,50.804c-57.871,8.676 -133.419,7.13 -175,13.917c-26.042,4.251 -50.129,34.193 -74.485,26.804c-24.355,-7.388 -40.85,-58.075 -71.649,-71.134c-30.799,-13.058 -113.145,-7.216 -113.145,-7.216l0,193.91l800,-34.632Z" style="fill:#bf9bde;stroke:#bf9bde;stroke-width:1px;"/><path d="M0.731,600l800,0l0,-131.111c0,0 -101.743,-58.73 -158.505,-57.479c-61.082,1.346 -146.134,54.867 -207.989,65.555c-53.453,9.236 -114.992,0 -163.145,-1.425c-41.982,-1.243 -84.04,-2.742 -125.773,-7.126c-42.449,-4.459 -114.999,-103.925 -144.588,-74.495c-1.051,1.046 0.948,104.259 0,105.373c0,0 18.042,15.676 0,0c0.117,67.324 0.423,67.144 0,100.708Z" style="fill:#997adb;stroke:#997adb;stroke-width:1px;"/><path d="M0,185.052l0,-185.052" style="fill:none;stroke:#fff;stroke-width:5px;"/><path d="M800,0l0,220.103" style="fill:#fff;stroke:#fff;stroke-width:5px;"/><path d="M-0.315,0l801.046,0" style="fill:none;stroke:#fff;stroke-width:5px;"/></svg>